<svg width="18" height="12" viewBox="0 0 18 12" fill="none" xmlns="http://www.w3.org/2000/svg">
<path fill-rule="evenodd" clip-rule="evenodd" d="M0 6C0 5.4477 0.44772 5 1 5H17C17.5523 5 18 5.4477 18 6C18 6.5523 17.5523 7 17 7H1C0.44772 7 0 6.5523 0 6Z" fill="#6A6A6A"/>
<path d="M2.02786 6C2.12116 6.1548 2.31675 6.4329 2.53062 6.6749C2.95637 7.1568 3.5431 7.7072 4.1556 8.2389C4.76313 8.7664 5.3736 9.2564 5.83397 9.6156C6.06363 9.7948 6.45995 10.0942 6.59308 10.1948C7.0377 10.5223 7.1327 11.1483 6.8052 11.5929C6.47769 12.0376 5.85169 12.1326 5.40699 11.8051L5.40328 11.8023C5.2589 11.6933 4.84028 11.3771 4.60352 11.1923C4.1264 10.82 3.48686 10.307 2.84439 9.7492C2.20689 9.1957 1.54362 8.5784 1.03187 7.9992C0.777 7.7108 0.53856 7.4082 0.35842 7.1094C0.19484 6.838 2e-05 6.4432 0 6C2e-05 5.5569 0.19484 5.162 0.35842 4.8906C0.53856 4.5918 0.777 4.2892 1.03186 4.0008C1.54362 3.4216 2.20689 2.80434 2.84439 2.25084C3.48686 1.69303 4.1264 1.18002 4.60352 0.80767C4.84028 0.62291 5.25863 0.306929 5.40301 0.197879L5.40699 0.19487C5.85169 -0.13264 6.47769 -0.0376403 6.8052 0.40706C7.1327 0.85173 7.0377 1.47768 6.59308 1.80521C6.45995 1.90576 6.06363 2.20515 5.83397 2.38437C5.3736 2.74365 4.76313 3.23357 4.1556 3.76105C3.5431 4.2928 2.95637 4.8432 2.53062 5.3251C2.31675 5.5671 2.12116 5.8452 2.02786 6Z" fill="#6A6A6A"/>
</svg>
