<svg width="40" height="19" viewBox="0 0 40 19" fill="none" xmlns="http://www.w3.org/2000/svg">
<rect width="40" height="19" rx="8" fill="#FEF5EA"/>
<path d="M15.2077 5.27273V14H14.185L9.42933 7.14773H9.34411V14H8.28729V5.27273H9.31001L14.0827 12.142H14.168V5.27273H15.2077ZM19.9304 14.1364C19.2997 14.1364 18.7557 13.9972 18.2983 13.7188C17.8438 13.4375 17.4929 13.0455 17.2457 12.5426C17.0014 12.0369 16.8793 11.4489 16.8793 10.7784C16.8793 10.108 17.0014 9.51705 17.2457 9.00568C17.4929 8.49148 17.8366 8.09091 18.277 7.80398C18.7202 7.5142 19.2372 7.36932 19.8281 7.36932C20.169 7.36932 20.5057 7.42614 20.8381 7.53977C21.1705 7.65341 21.473 7.83807 21.7457 8.09375C22.0185 8.34659 22.2358 8.68182 22.3977 9.09943C22.5597 9.51705 22.6406 10.0312 22.6406 10.642V11.0682H17.5952V10.1989H21.6179C21.6179 9.82955 21.544 9.5 21.3963 9.21023C21.2514 8.92045 21.044 8.69176 20.7741 8.52415C20.5071 8.35653 20.1918 8.27273 19.8281 8.27273C19.4276 8.27273 19.081 8.37216 18.7884 8.57102C18.4986 8.76705 18.2756 9.02273 18.1193 9.33807C17.9631 9.65341 17.8849 9.99148 17.8849 10.3523V10.9318C17.8849 11.4261 17.9702 11.8452 18.1406 12.1889C18.3139 12.5298 18.554 12.7898 18.8608 12.9688C19.1676 13.1449 19.5241 13.233 19.9304 13.233C20.1946 13.233 20.4332 13.196 20.6463 13.1222C20.8622 13.0455 21.0483 12.9318 21.2045 12.7812C21.3608 12.6278 21.4815 12.4375 21.5668 12.2102L22.5384 12.483C22.4361 12.8125 22.2642 13.1023 22.0227 13.3523C21.7813 13.5994 21.483 13.7926 21.1278 13.9318C20.7727 14.0682 20.3736 14.1364 19.9304 14.1364ZM25.6534 14L23.6591 7.45455H24.7159L26.1307 12.4659H26.1989L27.5966 7.45455H28.6705L30.0511 12.4489H30.1193L31.5341 7.45455H32.5909L30.5966 14H29.608L28.1761 8.97159H28.0739L26.642 14H25.6534Z" fill="#1C1D22"/>
</svg>
