<svg width="40" height="39" viewBox="0 0 40 39" fill="none" xmlns="http://www.w3.org/2000/svg">
<rect x="16" width="24" height="24" rx="12" fill="#FFCC91"/>
<path d="M28.032 16.1193C27.4695 16.1193 26.968 16.0227 26.5277 15.8295C26.0902 15.6364 25.7422 15.3679 25.4837 15.0241C25.228 14.6776 25.0888 14.2756 25.0661 13.8182H26.1399C26.1626 14.0994 26.2592 14.3423 26.4297 14.5469C26.6001 14.7486 26.8232 14.9048 27.0987 15.0156C27.3743 15.1264 27.6797 15.1818 28.0149 15.1818C28.3899 15.1818 28.7223 15.1165 29.0121 14.9858C29.3018 14.8551 29.5291 14.6733 29.6939 14.4403C29.8587 14.2074 29.9411 13.9375 29.9411 13.6307C29.9411 13.3097 29.8615 13.027 29.7024 12.7827C29.5433 12.5355 29.3104 12.3423 29.0036 12.2031C28.6967 12.0639 28.3217 11.9943 27.8786 11.9943H27.1797V11.0568H27.8786C28.2251 11.0568 28.5291 10.9943 28.7905 10.8693C29.0547 10.7443 29.2607 10.5682 29.4084 10.3409C29.5589 10.1136 29.6342 9.84659 29.6342 9.53977C29.6342 9.24432 29.5689 8.98722 29.4382 8.76847C29.3075 8.54972 29.1229 8.37926 28.8842 8.2571C28.6484 8.13494 28.37 8.07386 28.049 8.07386C27.7479 8.07386 27.4638 8.12926 27.1967 8.24006C26.9325 8.34801 26.7166 8.50568 26.549 8.71307C26.3814 8.91761 26.2905 9.16477 26.2763 9.45455H25.2536C25.2706 8.99716 25.4084 8.59659 25.6669 8.25284C25.9254 7.90625 26.2635 7.63636 26.6811 7.44318C27.1016 7.25 27.5632 7.15341 28.0661 7.15341C28.6058 7.15341 29.0689 7.26278 29.4553 7.48153C29.8416 7.69744 30.1385 7.98295 30.3459 8.33807C30.5533 8.69318 30.657 9.0767 30.657 9.48864C30.657 9.98011 30.5277 10.3991 30.2692 10.7457C30.0135 11.0923 29.6655 11.3324 29.2251 11.4659V11.5341C29.7763 11.625 30.2067 11.8594 30.5163 12.2372C30.826 12.6122 30.9808 13.0767 30.9808 13.6307C30.9808 14.1051 30.8516 14.5312 30.593 14.9091C30.3374 15.2841 29.9879 15.5795 29.5447 15.7955C29.1016 16.0114 28.5973 16.1193 28.032 16.1193Z" fill="#1C1D22"/>
<path fill-rule="evenodd" clip-rule="evenodd" d="M16.5137 36.5H8.16592C5.09955 36.5 2.74715 35.3925 3.41534 30.9348L4.19338 24.8936C4.60528 22.6693 6.02404 21.8181 7.26889 21.8181H17.4474C18.7105 21.8181 20.0469 22.7334 20.5229 24.8936L21.3009 30.9348C21.8684 34.889 19.5801 36.5 16.5137 36.5Z" stroke="#53545C" stroke-width="1.5" stroke-linecap="round" stroke-linejoin="round"/>
<path d="M16.651 21.5984C16.651 19.2123 14.7167 17.278 12.3307 17.278V17.278C11.1817 17.2732 10.0781 17.7262 9.26388 18.537C8.44969 19.3477 7.99199 20.4494 7.992 21.5984H7.992" stroke="#53545C" stroke-width="1.5" stroke-linecap="round" stroke-linejoin="round"/>
<path d="M15.2963 26.1018H15.2506" stroke="#53545C" stroke-width="1.5" stroke-linecap="round" stroke-linejoin="round"/>
<path d="M9.46572 26.1018H9.41995" stroke="#53545C" stroke-width="1.5" stroke-linecap="round" stroke-linejoin="round"/>
</svg>
